<svg width="9" height="9" viewBox="0 0 9 9" fill="none" xmlns="http://www.w3.org/2000/svg">
<path d="M8.64735 6.94586L6.20152 4.50123L8.64598 2.05661C9.11617 1.5877 9.11617 0.824615 8.64598 0.355764C8.17579 -0.117212 7.4155 -0.115837 6.94531 0.354389L4.49947 2.79907L2.05364 0.351639C1.58347 -0.118587 0.821809 -0.115837 0.351615 0.351639C-0.117205 0.821865 -0.117205 1.58495 0.351615 2.05386L2.7988 4.50123L0.357114 6.94173C-0.11308 7.41196 -0.11308 8.17504 0.357114 8.64252C0.592211 8.87901 0.8988 8.99588 1.20676 8.99588C1.5161 8.99588 1.82266 8.87901 2.05776 8.64389L4.49947 6.20202L6.94668 8.64802C7.18178 8.88313 7.48837 9 7.79633 9C8.10429 9 8.41226 8.88176 8.64735 8.64802C9.11755 8.17779 9.11755 7.41608 8.64735 6.94586Z" fill="white"/>
</svg>
