<svg width="16" height="19" viewBox="0 0 16 19" fill="none" xmlns="http://www.w3.org/2000/svg">
<path fill-rule="evenodd" clip-rule="evenodd" d="M0.77284 3.54402H1.39332V14.3638C1.39449 15.3883 1.80198 16.3705 2.52641 17.0949C3.25083 17.8193 4.23303 18.2268 5.25752 18.228H10.7425C11.767 18.2268 12.7492 17.8193 13.4736 17.0949C14.198 16.3705 14.6055 15.3883 14.6067 14.3638V3.54402H15.2272C15.4321 3.54402 15.6287 3.4626 15.7736 3.31766C15.9186 3.17273 16 2.97615 16 2.77118C16 2.56621 15.9186 2.36964 15.7736 2.2247C15.6287 2.07977 15.4321 1.99834 15.2272 1.99834H11.3409V1.65609C11.3403 1.21704 11.1656 0.796151 10.8552 0.485702C10.5447 0.175252 10.1238 0.000584222 9.68479 0H6.31521C5.87617 0.000584222 5.45527 0.175252 5.14482 0.485702C4.83437 0.796151 4.65971 1.21704 4.65912 1.65609V1.99834H0.77284C0.56787 1.99834 0.371295 2.07977 0.226359 2.2247C0.0814238 2.36964 0 2.56621 0 2.77118C0 2.97615 0.0814238 3.17273 0.226359 3.31766C0.371295 3.4626 0.56787 3.54402 0.77284 3.54402ZM6.2048 1.65609C6.2048 1.6268 6.21643 1.59872 6.23714 1.57802C6.25784 1.55731 6.28593 1.54568 6.31521 1.54568H9.68479C9.71407 1.54568 9.74215 1.55731 9.76286 1.57802C9.78356 1.59872 9.7952 1.6268 9.7952 1.65609V1.99834H6.2048V1.65609ZM13.061 3.54402H2.939V14.3638C2.93958 14.9785 3.18404 15.5679 3.61872 16.0026C4.05341 16.4373 4.64279 16.6817 5.25752 16.6823H10.7425C11.3572 16.6817 11.9466 16.4373 12.3813 16.0026C12.816 15.5679 13.0604 14.9785 13.061 14.3638V3.54402Z" fill="#CECECE"/>
</svg>
